Coordinates
version=1
nRows=13
nColumns=22
inDegrees=yes

Units are S.I. units (second, meters, Newtons, ...)
If the header above contains a line with 'inDegrees', this indicates whether rotational values are in degrees (yes) or radians (no).

endheader
time	pelvis_tilt	pelvis_list	pelvis_rotation	pelvis_tx	pelvis_ty	pelvis_tz	hip_flexion_r	hip_adduction_r	hip_rotation_r	knee_angle_r	ankle_angle_r	subtalar_angle_r	hip_flexion_l	hip_adduction_l	hip_rotation_l	knee_angle_l	ankle_angle_l	subtalar_angle_l	lumbar_extension	lumbar_bending	lumbar_rotation
      3.70000000	     -3.68172956	      8.53854510	    -89.96328014	      0.46352244	      0.96492265	      1.09359612	     11.44163039	      4.18303032	      2.73476818	    -51.62911049	      5.35823805	     -0.05827969	     35.94182113	     -2.76028408	      2.37150655	    -29.50737011	      8.25937712	      2.01588554	      1.75802695	      4.77321095	      6.53471081
      3.71000000	     -3.39315294	      8.71720665	    -90.14185514	      0.46551807	      0.96569106	      1.09917839	     12.35612361	      3.69224225	      2.68780589	    -52.93606775	      5.07814041	     -0.41007164	     35.65750273	     -2.41705932	      2.16921269	    -29.39252351	      8.55818978	      1.75643228	      1.83610194	      4.41645085	      6.45823802
      3.72000000	     -3.05260499	      8.85089943	    -90.31156236	      0.46754624	      0.96652310	      1.10462421	     13.22742961	      3.12751721	      2.61448580	    -54.13244281	      5.11265392	     -0.62200336	     35.29514651	     -2.00854256	      1.98398223	    -29.20022390	      8.82192789	      1.60071664	      1.85802179	      4.00678806	      6.33686914
      3.73000000	     -2.71066734	      9.00989466	    -90.48062716	      0.46958856	      0.96726386	      1.10988038	     14.13986748	      2.53807213	      2.49365650	    -55.20632921	      5.38686237	     -1.08720636	     34.97249237	     -1.60408987	      1.74926608	    -28.99711093	      9.06262902	      1.27330213	      1.90202575	      3.61318851	      6.20772415
      3.74000000	     -2.35671459	      9.10757432	    -90.61018573	      0.47168470	      0.96811261	      1.11500885	     14.96634740	      1.91772278	      2.33521150	    -56.09883091	      5.97606241	     -1.42495949	     34.56156052	     -1.15231849	      1.59841319	    -28.72175861	      9.26220255	      1.12699754	      1.87123889	      3.21260850	      6.00486606
      3.75000000	     -2.02075021	      9.20048317	    -90.74925073	      0.47369962	      0.96895914	      1.11998147	     15.78860280	      1.31866033	      2.16353700	    -56.82170367	      6.61780836	     -2.15434715	     34.15105230	     -0.73597619	      1.39664143	    -28.42927863	      9.48134346	      0.79534075	      1.82942970	      2.83694726	      5.81041963
      3.76000000	     -1.72287557	      9.26286467	    -90.84307058	      0.47570592	      0.96986485	      1.12479955	     16.55745040	      0.76042968	      1.96009447	    -57.34771071	      7.41556796	     -2.76768272	     33.71783001	     -0.33783850	      1.23345694	    -28.11767358	      9.65317505	      0.59975154	      1.74631663	      2.50855130	      5.54680037
      3.77000000	     -1.49378969	      9.31399408	    -90.91749695	      0.47760376	      0.97080249	      1.12943919	     17.29411893	      0.30921491	      1.77168408	    -57.67392850	      8.26640664	     -3.48793607	     33.28244979	     -0.00325792	      1.12582002	    -27.79464323	      9.82413600	      0.38043712	      1.64052976	      2.25656354	      5.27663659
      3.78000000	     -1.33338600	      9.36445051	    -90.96527768	      0.47937802	      0.97174757	      1.13390382	     18.01084762	     -0.03592614	      1.57976338	    -57.80911702	      9.12672710	     -4.13793219	     32.86621915	      0.26245074	      1.04584379	    -27.47846900	      9.97521009	      0.19572568	      1.52809272	      2.07594372	      4.98079045
      3.79000000	     -1.22920693	      9.42779263	    -90.97912030	      0.48103246	      0.97266663	      1.13817067	     18.72483966	     -0.28682599	      1.37710430	    -57.76900336	      9.98182908	     -4.57863955	     32.48862640	      0.47526955	      0.99991975	    -27.17558289	     10.09871393	      0.08157781	      1.42129612	      1.94930900	      4.65975190
      3.80000000	     -1.19654720	      9.51083803	    -91.00743534	      0.48245494	      0.97352810	      1.14223789	     19.44467696	     -0.40154632	      1.20134048	    -57.55723281	     10.76944784	     -5.20059578	     32.15819814	      0.58977138	      0.95168239	    -26.90093271	     10.26470502	     -0.11728258	      1.32814067	      1.89393868	      4.38012355
      3.81000000	     -1.21581308	      9.59055201	    -91.02645998	      0.48368267	      0.97435656	      1.14609441	     20.14827281	     -0.41922515	      1.02237947	    -57.19805516	     11.59244897	     -5.39664899	     31.85617511	      0.63688591	      0.90494002	    -26.65904713	     10.43831109	     -0.16057175	      1.21656880	      1.88078430	      4.11351361
      3.82000000	     -1.22220148	      9.77533919	    -91.03487604	      0.48480341	      0.97494873	      1.14973252	     20.96923685	     -0.44226250	      0.77800369	    -56.73086992	     12.34858383	     -5.77861916	     31.68910378	      0.69457512	      0.87356559	    -26.42910992	     10.54997157	     -0.33403052	      1.22802594	      1.84503345	      3.85348027
